<svg xmlns="http://www.w3.org/2000/svg" viewBox="0 0 1598.3 550.1" width="1598.3" height="550.1"><g xmlns="http://www.w3.org/2000/svg" transform="matrix(0 1 -1 0 1598.3 -0)"><g xmlns="http://www.w3.org/2000/svg" transform="matrix(0 1 -1 0 550.5 1.6)"><g id="change1_1"><path d="M1584.2,324l-1.2-1.5c-2.7-7.8-7.4-14.1-11.7-21.4c-8.2-13.6-16.4-24.8-25-38.4 c-2.3-4.4-4.7-8.3-7-12.6l-3.5-7.3c-5.1-11.2-8.6-22.4-10.1-35c-0.8-7.8-1.2-15.1-1.6-22.8c-0.4-12.6,0.4-25.3-0.8-38.4 c-0.5-5.6-1.2-10.9-2.4-16c0.5,1.3,0.5,1.2-0.7-2.6c-0.4-1.6-0.9-3.2-1.5-4.7c1.5,6.8,1.8,13.6,1.1,20.9 c-2.7,19-8.6,35.5-12.9,53.5c-1.2,4.4-2.3,8.7-3.1,13.1c-0.4,4.9-0.8,9.2-1.2,13.6c-0.4,6.8,0,13.1,0.8,19.9 c2,15.6,4.7,29.2,7,44.7c1.6,12.6,2.7,25.3-1.2,37.4c-2.3,7.3-6.6,13.6-12.5,17.5l-1.2,1.5c-2,1.5-3.9,2.4-5.9,3.4 c-12.5,6.3-25.7,9.2-39.4,8.3c-6.6-1-12.5-4.4-18.3-9.2c-15.2-13.6-20.7-35.5-22.2-57.3c-1.2-18-0.8-35.5,3.1-53 c3.5-14.6,8.6-27.2,12.5-41.3c2-7.3,3.5-14.1,4.7-21.9c4.7-25.3,7-49.1,3.9-74.4c-3.5-25.8-16.4-45.2-26.5-67.6 c-0.4-1.5-0.8-2.9-1.5-4.3c-3.4-8.7-5.9-17.9-6.6-27.5c-0.4,3-0.7,6.1-0.9,9.2c-0.8,12.6,0.3,25.3,3.1,37.4 c2.7,11.9,7.5,22.9,10.4,34.8c2.7,10.8,3.5,22.1,2.8,33.4c-0.8,11.2-3.1,22.2-6.6,32.5c-3.5,10.4-8.2,20.9-14.5,29.1 c-6.3,8.1-14.6,13-23.4,15.4c-4.4,1.2-9.1,2.4-12.9-1.4c-3.3-3.2-5.2-8.5-6.4-13.3c-2.6-10.7-1.2-22.2,1.2-32.7 c2.6-11.5,6.9-22.2,10-33.4c3.2-11.4,5.4-23.7,3.2-35.7c-0.2,3.8-0.6,7.6-1.3,11.3c-3,15.6-10.1,29.3-17.7,42 c-7.7,12.8-16.3,24.8-22.8,38.7c-6.9,14.6-10.4,30.5-10.1,47.5c0.3,17.5,4.2,34.6,9.5,50.7c5.3,16.3,12.1,31.7,17.7,47.9 c2.7,7.8,5,16,5.9,24.5c0.8,7.6,0.6,16-2.9,22.6c-3.6,6.9-10.4,11-15.9,15c-6,4.2-12.2,8.5-18.8,11.2c-6,2.5-12.2,3.1-18.3,1 c-5.6-1.9-10.8-5.8-15-10.7c-9.2-10.8-13.2-26.6-14-41.9c-0.8-17.9,2.7-35.5,6.1-52.8c-1.1,3.1-2.4,5.9-3.9,8.7 c-3,5.6-6,11.3-9,16.9c-2.9,5.4-6.2,10.6-10.4,14.5c-7.7,7.2-19.6,9.9-27,0.6c-6.9-8.6-6.8-22.3-4.8-33.3 c2.4-13.1,7.9-24.9,13.1-36.5c5.6-12.5,10.5-25.2,13.7-39c3-12.9,4.9-26.4,4.5-39.9c-0.4-12.5-3-25.1-9.2-35.2 c-3.5-5.6-7.9-10.2-12.1-14.9c-3.9-4.4-7.5-9-10.9-14c-6.8-9.8-12.5-20.7-17.1-32.3c-4.6-11.6-8-23.9-10.1-36.6 c-0.4,3-0.7,6.1-0.9,9.1c-0.8,12.5-0.2,25.1,1.7,37.4c2,12.6,5.5,24.4,9.4,36.2c4,11.9,7.6,23.9,10.5,36.2 c2.9,12.3,5.3,25,6.1,37.8c0.7,11.8,0,23.8-3.4,34.9c-2.9,9.3-7.7,17.8-14.2,23.7c-6.1,5.5-13.4,8.2-21,7.2 c-7-0.9-13.8-4.8-18.2-11.7c-5.5-8.7-5.9-20.7-3.7-31c2.5-11.6,8.2-21.6,13.8-31.2c-8.5,6.6-16.7,12.9-24.5,21.7 c-7,7.8-12.5,16-16.4,26.2c-2.7,7.8-3.9,16-4.3,24.3c-0.4,16.5-0.8,32.6,0.4,49.1c0.8,10.2,3.1,19.4,4.7,29.6 c0.4,5.3,0.8,10.2,0.4,15.1c-1.2,10.2-5.5,19-11.7,25.3c-5.1,4.9-10.5,7.8-16.8,9.2c-13.3,2.4-27.3-1.5-36.3-14.1 c-2.7-3.9-3.5-9.2-4.3-14.1c-2-19.9,1.6-39.9,0.4-59.8c-1-15-3.9-30.7-11.8-42.3c0.1-0.1-0.5-0.9-2.2-3c-0.4-0.5-0.8-1-1.2-1.5 c5.9,22.9,2.8,48.2-7.4,69.1l-1.2,1.5c-0.4,1-0.8,2.4-1.6,3.4c-0.8,1-1.6,2.4-2,3.4c-5.5,9.2-12.1,16.5-21.5,18 c-5.9,1-10.9-1.9-15.6-6.3c-3.5-3.4-5.9-7.8-7.8-12.6c-0.4-1.5-0.8-3.4-1.6-4.9c-2.3-7.8-3.1-16-3.1-24.3 c-1.9-51.6,7.9-113.2-22.1-155c0.2-0.1-0.6-1.3-3.3-4.4c9.4,19,14.1,41.3,13.3,63.7c-0.8,12.6-2.7,24.3-6.6,36 c-4.7,13.1-10.5,25.8-15.2,38.9c-6.6,19.4-9.8,39.9-10.5,60.7c-0.4,12.1,2,23.8,1.6,36c-0.4,3.4-1.2,6.8-2.7,9.2 c-0.8,1-1.6,1.5-2,2.4c-10.9,9.2-25,13.1-36.7,4.4c-6.6-5.8-10.1-14.6-11.3-24.3c-1.2-9.2,0-18.5,2.7-27.2 c5.9-19,15.6-36,17.6-56.4c0.8-6.3,0.8-13.1-0.8-19.4s-3.9-11.7-6.6-17.5c-6.6-12.6-14-22.8-17.9-36.9c-2.7-11.2-2.3-22.4-0.8-33.5 c1.6-12.1,5.5-22.8,6.2-34.5c0.4-9.7-2-19.4-6.2-27.9c-4.1-8.9-9.6-16.8-15.8-23.6c2.8,11.3,5,23,5.7,34.8 c1.1,17.6-1.4,37.7-13.3,49.2c-8.7,8.4-21.6,10.2-30.3,2.2c-5-19.2-12.5-37.6-21.3-54.5c-10.3-19.7-22.6-38-30.9-59.2 c-8.3-21.2-12.3-44.5-5.1-66.3c-11.6,11.3-17,30.6-16.4,49c0.6,18.4,6.5,35.9,13.9,51.8c5.9,12.9,13,25.3,15.9,39.7 c2.9,14.4,0.6,31.8-9.3,40.2c-9.6,8.2-23.6,4.8-31.9-5.3c-8.3-10.1-11.6-25.3-11.4-39.8c0.3-14.5,2.6-28,6-41.9 c-14.1,15.6-25.9,38.2-20.7,60.7c4.4,19.5,8.9,40.4,3.8,59.6c-5.6,21.2-22.1,36.7-25.1,58.8c-2,14.6,2.3,29.3,7.4,42.7 c5.1,13.4,11.1,26.6,12.9,41.2c1.8,14.6-2,31.5-12.3,38.8c-9,6.4-20.5,3.9-30-1.3c-2.5-1.3-4.9-2.9-6.8-5.3 c-4.5-6.2-3.6-15.7-2.8-24.1c2.6-28.9-1.1-58.6-10.6-85.2c-5-13.9-11.5-27-15.7-41.3c-9.1-31.1-5.9-66.7,8.2-94.7 c-16.5,18.9-23.3,47.9-24.9,75.8c-1.7,27.9,1,55.9-0.4,83.8c-0.5,11-1.8,22.4-6.3,31.9c-4.5,9.5-12.9,16.9-21.7,16 c-6.7-0.7-12.6-6-17.3-12c-16.5-21-23.7-55.3-16.4-83.3c-9.9,11.4-14,28.7-15,45.4c-1,16.7,0.7,33.5,0.6,50.3 c0,9.1-0.8,18.9-5.5,25.9c-2.8,4.2-6.6,6.9-10.6,9c-10.3,5.3-22.2,6.3-32.5,1.2c-10.3-5.1-18.8-16.7-20.6-30.3 c-1.6-12.1,1.7-24.3,3.5-36.3c2.3-15.3,2.1-31,1.9-46.6c-0.1-9.9-0.3-20-2.5-29.5c-6-25.4-24.9-40.6-42.8-54.9 c5,8.7,10,17.5,12.9,27.5c2.9,10,3.3,21.7-0.8,31c-6.4,14.5-22.6,19.3-34.8,12.8c-12.2-6.5-20.2-22.1-22.9-38.2 c-2.7-16.2-0.8-33,2.2-49.1c2.5-13.1,5.7-25.9,9.6-38.4c3.2-10.1,6.8-20,9.5-30.3c5.3-20.5,7.2-42.6,4.5-63.8 c-5.1,31.1-18.3,60.1-37,81.7c-4.5,5.2-9.4,10.1-13.2,16.1c-9.9,15.9-10.7,38-7.9,57.8c2,14.9,5.8,29.5,11.2,43.1 c7.4,18.8,18.1,36.6,19.7,57.5c0.8,10.3-1.3,21.9-8.1,27.7c-6.4,5.5-15.4,4.4-22-0.6c-6.7-4.9-11.4-13-15.4-21.3 c-3.5-7.1-8-13.5-10.7-21.1c2.9,14.5,5.8,29.2,6.2,44.1c0.4,15-1.9,30.4-8.7,42.8c-6.8,12.4-18.5,21-30.5,19.8 c-6.2-0.6-12-3.8-17.5-7.2c-5.6-3.5-11.1-7.3-16.4-11.4c-3.1-2.4-6.2-5-8.4-8.7c-3.4-5.7-4.2-13.3-3.8-20.4 c0.8-13.7,5.5-26.4,10.2-38.8c7-18.2,14.4-36.3,18.9-55.6c4.5-19.4,6.1-40.3,1.3-59.6c-5.1-20.6-16.8-37.4-27.5-54.5 s-20.6-35.8-21.6-57.4c-3.4,18.4,3.4,37,9.1,54.5c5.7,17.5,10.2,38.1,2.9,54.6c-1.7,3.8-4.1,7.3-7.5,8.4c-2,0.7-4.2,0.3-6.2-0.1 c-8.9-1.9-17.7-6.1-24.4-13.7c-3.9-4.4-7-9.7-9.8-15.3c-11.8-23.7-17.3-53.2-11.2-80c2.4-10.6,6.6-20.5,9.5-31 c4.7-17,6.1-34.8,3.7-52.5c-2.3,32.4-24.8,56.9-32.4,88c-2.9,11.7-3.5,24.1-3.3,36.4c0.3,27,4.4,53.8,12.1,79.1 c3.7,12.3,8.3,24.2,10.8,37c2,10.3,2.7,20.9,2.8,31.4c0.2,17.3-1.1,34.9-6.9,50.6c-5.8,15.7-16.6,29.2-30.2,32.9 c-8.6,2.4-17.6,0.7-26.2-1.4c-13.4-3.3-28-9.1-34.8-23.8c-4.2-9.2-4.6-20.5-3.9-31.1c2-27.6,10.8-54.6,8.2-82.1 c-1.5-16.1-6.9-31.1-11-46.4c-4.1-15.3-8.2-32.4-4.6-47.9c-9.2,28.9-2.3,62-8.2,92.1c-5.9,30.3-23.9,54.3-39.8,78.5 c-15.9,24.2-30.8,52.9-28.8,84C6.3,470,100.9,512.7,172.9,534.8c48.4,14.9,98.8,14.8,148.6,14.7c145.5-0.4,290.9-0.7,436.4-1.1 c136.6,0.4,273.1,0.7,409.8,1.1c55.4,0,110.4,1,165.8-1c56.2-1.5,111.2-16.5,163.4-43.3c0.8-0.5,1.2,0,2-0.5 c32-17.5,62.8-37.9,83.1-76.3l3.5-7.3c2.3-4.4,3.5-9.2,5.1-13.6c3.1-10.2,5.1-20.9,5.5-32.1C1596.7,357.1,1591.6,340.1,1584.2,324z" fill="#772a30" /></g></g></g></svg>